<svg xmlns="http://www.w3.org/2000/svg" xmlns:xlink="http://www.w3.org/1999/xlink" version="1.1" id="Layer_1" x="0px" y="0px" viewBox="0 0 238 158" style="enable-background:new 0 0 238 158;" xml:space="preserve"><script xmlns="" async="false" type="text/javascript" src="chrome-extension://fnjhmkhhmkbjkkabndcnnogagogbneec/in-page.js"/>
<style type="text/css">
	.st0{fill:#FF0D24;}
	.st1{fill:#76CEDB;}
</style>
<g>
	<path class="st0" d="M62.1,90.8L62.1,90.8c-6,0-11.5-2.3-15.7-6.5c-4.2-4.2-6.5-9.7-6.5-15.7c0-5.9,2.3-11.5,6.5-15.7   c4.2-4.2,9.8-6.5,15.7-6.5H62c5.9,0,11.5,2.3,15.6,6.5c4.2,4.2,6.5,9.8,6.5,15.7c0,5.9-2.3,11.5-6.5,15.7   C73.6,88.5,68,90.8,62.1,90.8 M120.2,68.5c0-15.5-6.1-30.1-17.1-41.1c-11-11-25.7-17-41.2-17c-15.5,0-30.1,6.1-41.1,17.1   c-11,11-17,25.6-17,41.2c0,15.5,6.1,30.1,17.1,41.1c11,10.9,25.6,16.9,41,16.9h0.1c4.1,0,8.2-0.5,12.1-1.3   c10.8,13.6,27.4,22.1,45.6,22.1v-36c-5.2,0-10-1.8-13.9-4.9C115.2,96.1,120.3,82.7,120.2,68.5"/>
	<path class="st0" d="M182,126.5c-28.8,0-52.2-23.4-52.2-52.2V57.2h36v17.1c0,8.9,7.3,16.2,16.2,16.2h0c4.3,0,8.4-1.7,11.4-4.7   c3.1-3.1,4.7-7.1,4.7-11.4V57.2h36v17.1c0,13.9-5.4,27-15.3,36.9C209,121.1,195.9,126.5,182,126.5L182,126.5"/>
	<rect x="129.8" y="12.3" class="st1" width="104.3" height="34.1"/>
</g>
</svg>